<svg width="958" height="958" viewBox="0 0 958 958" fill="none" xmlns="http://www.w3.org/2000/svg">
<path d="M0 104C0 46.5624 46.5624 0 104 0H854C911.438 0 958 46.5624 958 104V854C958 911.438 911.438 958 854 958H104C46.5624 958 0 911.438 0 854V104Z" fill="#0A0A0A"/>
<g filter="url(#filter0_d_205_7)">
<path d="M316 301.5C354 301.5 386.833 308.667 414.5 323C442.5 337 463.833 357.167 478.5 383.5C493.5 409.833 501 440.833 501 476.5C501 512.167 493.5 543.167 478.5 569.5C463.833 595.5 442.5 615.5 414.5 629.5C386.833 643.167 354 650 316 650H208.5C207.948 650 207.5 649.552 207.5 649V302.5C207.5 301.948 207.948 301.5 208.5 301.5H316ZM316 612.5C361 612.5 395.333 600.667 419 577C442.667 553 454.5 519.5 454.5 476.5C454.5 433.167 442.5 399.333 418.5 375C394.833 350.667 360.667 338.5 316 338.5H254C253.448 338.5 253 338.948 253 339.5V611.5C253 612.052 253.448 612.5 254 612.5H316Z" fill="white"/>
<path d="M316 301.5C354 301.5 386.833 308.667 414.5 323C442.5 337 463.833 357.167 478.5 383.5C493.5 409.833 501 440.833 501 476.5C501 512.167 493.5 543.167 478.5 569.5C463.833 595.5 442.5 615.5 414.5 629.5C386.833 643.167 354 650 316 650H208.5C207.948 650 207.5 649.552 207.5 649V302.5C207.5 301.948 207.948 301.5 208.5 301.5H316ZM316 612.5C361 612.5 395.333 600.667 419 577C442.667 553 454.5 519.5 454.5 476.5C454.5 433.167 442.5 399.333 418.5 375C394.833 350.667 360.667 338.5 316 338.5H254C253.448 338.5 253 338.948 253 339.5V611.5C253 612.052 253.448 612.5 254 612.5H316Z" stroke="white" stroke-width="205"/>
</g>
<g style="mix-blend-mode:difference" filter="url(#filter1_d_205_7)">
<path d="M708.349 760C614.463 760 543.016 736.26 494.01 688.778C445.003 641.297 420.5 574.205 420.5 487.5C420.5 400.795 445.003 333.703 494.01 286.222C543.016 238.741 614.463 215 708.349 215H744.405C803.552 215 851.5 262.971 851.5 322.145V652.855C851.5 712.029 803.552 760 744.405 760H708.349ZM708.349 228.935C618.59 228.935 550.754 251.643 504.843 297.06C458.931 342.476 435.976 405.956 435.976 487.5C435.976 569.044 458.931 632.524 504.843 677.94C550.754 723.357 618.59 746.065 708.349 746.065H728.929C788.076 746.065 836.024 698.095 836.024 638.92V336.08C836.024 276.905 788.076 228.935 728.929 228.935H708.349Z" fill="white"/>
<path d="M488.443 694.524C539.429 743.923 613.179 768 708.349 768H744.405C807.974 768 859.5 716.444 859.5 652.855V322.145C859.5 258.556 807.974 207 744.405 207H708.349C613.179 207 539.429 231.077 488.443 280.476C437.487 329.846 412.5 399.249 412.5 487.5C412.5 575.751 437.487 645.154 488.443 694.524ZM510.469 302.747C554.379 259.31 619.862 236.935 708.349 236.935H728.929C783.654 236.935 828.024 281.32 828.024 336.08V638.92C828.024 693.68 783.654 738.065 728.929 738.065H708.349C619.862 738.065 554.379 715.69 510.469 672.253C466.451 628.71 443.976 567.499 443.976 487.5C443.976 407.501 466.451 346.29 510.469 302.747Z" stroke="white" stroke-width="16" stroke-miterlimit="1.19236" stroke-linecap="square"/>
</g>
<defs>
<filter id="filter0_d_205_7" x="101" y="199" width="506.5" height="561.5" filterUnits="userSpaceOnUse" color-interpolation-filters="sRGB">
<feFlood flood-opacity="0" result="BackgroundImageFix"/>
<feColorMatrix in="SourceAlpha" type="matrix" values="0 0 0 0 0 0 0 0 0 0 0 0 0 0 0 0 0 0 127 0" result="hardAlpha"/>
<feOffset dy="4"/>
<feGaussianBlur stdDeviation="2"/>
<feComposite in2="hardAlpha" operator="out"/>
<feColorMatrix type="matrix" values="0 0 0 0 0 0 0 0 0 0 0 0 0 0 0 0 0 0 0.25 0"/>
<feBlend mode="difference" in2="BackgroundImageFix" result="effect1_dropShadow_205_7"/>
<feBlend mode="normal" in="SourceGraphic" in2="effect1_dropShadow_205_7" result="shape"/>
</filter>
<filter id="filter1_d_205_7" x="400.5" y="199" width="471" height="585" filterUnits="userSpaceOnUse" color-interpolation-filters="sRGB">
<feFlood flood-opacity="0" result="BackgroundImageFix"/>
<feColorMatrix in="SourceAlpha" type="matrix" values="0 0 0 0 0 0 0 0 0 0 0 0 0 0 0 0 0 0 127 0" result="hardAlpha"/>
<feOffset dy="4"/>
<feGaussianBlur stdDeviation="2"/>
<feComposite in2="hardAlpha" operator="out"/>
<feColorMatrix type="matrix" values="0 0 0 0 0 0 0 0 0 0 0 0 0 0 0 0 0 0 0.25 0"/>
<feBlend mode="normal" in2="BackgroundImageFix" result="effect1_dropShadow_205_7"/>
<feBlend mode="normal" in="SourceGraphic" in2="effect1_dropShadow_205_7" result="shape"/>
</filter>
</defs>
</svg>
